<mxfile host="Electron" agent="Mozilla/5.0 (Windows NT 10.0; Win64; x64) AppleWebKit/537.36 (KHTML, like Gecko) draw.io/26.2.15 Chrome/134.0.6998.205 Electron/35.2.1 Safari/537.36" version="26.2.15">
  <diagram name="Page-1" id="-H_mtQnk-PTXWXPvYvuk">
    <mxGraphModel dx="2645" dy="-768" grid="1" gridSize="10" guides="1" tooltips="1" connect="1" arrows="1" fold="1" page="1" pageScale="1" pageWidth="1169" pageHeight="827" math="0" shadow="0">
      <root>
        <mxCell id="0" />
        <mxCell id="1" parent="0" />
        <mxCell id="lFzufHl21QCXSFCjwF_H-1" value="pymongo-api" style="rounded=1;whiteSpace=wrap;html=1;fillColor=#60a917;fontColor=#ffffff;strokeColor=#2D7600;" parent="1" vertex="1">
          <mxGeometry x="275" y="1965" width="120" height="60" as="geometry" />
        </mxCell>
        <mxCell id="uPeLI1OYld5eHZ4vqKpb-39" style="edgeStyle=orthogonalEdgeStyle;rounded=0;orthogonalLoop=1;jettySize=auto;html=1;entryX=0;entryY=0.5;entryDx=0;entryDy=0;fillColor=#60a917;strokeColor=#2D7600;" parent="1" source="yOSXJpTAKkjODtj7mfZw-35" target="uPeLI1OYld5eHZ4vqKpb-26" edge="1">
          <mxGeometry relative="1" as="geometry">
            <Array as="points">
              <mxPoint x="590" y="2000" />
              <mxPoint x="590" y="1905" />
            </Array>
          </mxGeometry>
        </mxCell>
        <mxCell id="uPeLI1OYld5eHZ4vqKpb-40" style="edgeStyle=orthogonalEdgeStyle;rounded=0;orthogonalLoop=1;jettySize=auto;html=1;entryX=0;entryY=0.5;entryDx=0;entryDy=0;fillColor=#60a917;strokeColor=#2D7600;" parent="1" source="yOSXJpTAKkjODtj7mfZw-35" target="uPeLI1OYld5eHZ4vqKpb-1" edge="1">
          <mxGeometry relative="1" as="geometry">
            <Array as="points">
              <mxPoint x="590" y="2000" />
              <mxPoint x="590" y="2095" />
            </Array>
          </mxGeometry>
        </mxCell>
        <mxCell id="lFzufHl21QCXSFCjwF_H-4" style="edgeStyle=orthogonalEdgeStyle;rounded=0;orthogonalLoop=1;jettySize=auto;html=1;fillColor=#60a917;strokeColor=#2D7600;entryX=1;entryY=0.5;entryDx=0;entryDy=0;exitX=0.5;exitY=1;exitDx=0;exitDy=0;" parent="1" source="yOSXJpTAKkjODtj7mfZw-35" target="lFzufHl21QCXSFCjwF_H-3" edge="1">
          <mxGeometry relative="1" as="geometry" />
        </mxCell>
        <mxCell id="lFzufHl21QCXSFCjwF_H-7" value="Регистрация" style="edgeLabel;html=1;align=center;verticalAlign=middle;resizable=0;points=[];" parent="lFzufHl21QCXSFCjwF_H-4" vertex="1" connectable="0">
          <mxGeometry x="-0.0678" y="-4" relative="1" as="geometry">
            <mxPoint x="4" y="-43" as="offset" />
          </mxGeometry>
        </mxCell>
        <mxCell id="lFzufHl21QCXSFCjwF_H-14" style="edgeStyle=orthogonalEdgeStyle;rounded=0;orthogonalLoop=1;jettySize=auto;html=1;entryX=1;entryY=0.5;entryDx=0;entryDy=0;exitX=0.25;exitY=0;exitDx=0;exitDy=0;fillColor=#60a917;strokeColor=#2D7600;" parent="1" source="yOSXJpTAKkjODtj7mfZw-35" target="lFzufHl21QCXSFCjwF_H-12" edge="1">
          <mxGeometry relative="1" as="geometry" />
        </mxCell>
        <mxCell id="lFzufHl21QCXSFCjwF_H-19" value="Обновляет данные" style="edgeLabel;html=1;align=center;verticalAlign=middle;resizable=0;points=[];" parent="lFzufHl21QCXSFCjwF_H-14" vertex="1" connectable="0">
          <mxGeometry x="0.1592" relative="1" as="geometry">
            <mxPoint x="-24" y="-10" as="offset" />
          </mxGeometry>
        </mxCell>
        <mxCell id="yOSXJpTAKkjODtj7mfZw-35" value="pymongo-api&lt;br&gt;[python]" style="rounded=1;whiteSpace=wrap;html=1;fillColor=#60a917;fontColor=#ffffff;strokeColor=#2D7600;" parent="1" vertex="1">
          <mxGeometry x="280" y="1970" width="120" height="60" as="geometry" />
        </mxCell>
        <mxCell id="yOSXJpTAKkjODtj7mfZw-51" value="" style="edgeStyle=orthogonalEdgeStyle;rounded=0;orthogonalLoop=1;jettySize=auto;html=1;exitX=0.5;exitY=0;exitDx=0;exitDy=0;entryX=0;entryY=0.5;entryDx=0;entryDy=0;entryPerimeter=0;startArrow=classic;startFill=1;fillColor=#1ba1e2;strokeColor=#006EAF;" parent="1" source="yOSXJpTAKkjODtj7mfZw-35" target="yOSXJpTAKkjODtj7mfZw-50" edge="1">
          <mxGeometry relative="1" as="geometry">
            <mxPoint x="400" y="2000" as="sourcePoint" />
            <mxPoint x="780" y="1930" as="targetPoint" />
          </mxGeometry>
        </mxCell>
        <mxCell id="yOSXJpTAKkjODtj7mfZw-64" value="Чтение кэша" style="edgeLabel;html=1;align=center;verticalAlign=middle;resizable=0;points=[];" parent="yOSXJpTAKkjODtj7mfZw-51" vertex="1" connectable="0">
          <mxGeometry x="0.6228" relative="1" as="geometry">
            <mxPoint x="-18" y="-10" as="offset" />
          </mxGeometry>
        </mxCell>
        <mxCell id="07Iox8re1Xdmz7zonKfV-1" value="Актуализация кэша" style="edgeLabel;html=1;align=center;verticalAlign=middle;resizable=0;points=[];" parent="yOSXJpTAKkjODtj7mfZw-51" vertex="1" connectable="0">
          <mxGeometry x="0.6228" relative="1" as="geometry">
            <mxPoint x="152" y="-10" as="offset" />
          </mxGeometry>
        </mxCell>
        <mxCell id="uPeLI1OYld5eHZ4vqKpb-45" style="edgeStyle=orthogonalEdgeStyle;rounded=0;orthogonalLoop=1;jettySize=auto;html=1;entryX=0;entryY=0.25;entryDx=0;entryDy=0;fillColor=#1ba1e2;strokeColor=#006EAF;" parent="1" source="yOSXJpTAKkjODtj7mfZw-50" target="uPeLI1OYld5eHZ4vqKpb-26" edge="1">
          <mxGeometry relative="1" as="geometry" />
        </mxCell>
        <mxCell id="uPeLI1OYld5eHZ4vqKpb-46" style="edgeStyle=orthogonalEdgeStyle;rounded=0;orthogonalLoop=1;jettySize=auto;html=1;entryX=0;entryY=0.25;entryDx=0;entryDy=0;fillColor=#1ba1e2;strokeColor=#006EAF;" parent="1" source="yOSXJpTAKkjODtj7mfZw-50" target="uPeLI1OYld5eHZ4vqKpb-1" edge="1">
          <mxGeometry relative="1" as="geometry">
            <Array as="points">
              <mxPoint x="610" y="1890" />
              <mxPoint x="610" y="2080" />
            </Array>
          </mxGeometry>
        </mxCell>
        <mxCell id="yOSXJpTAKkjODtj7mfZw-50" value="Кэш&lt;br&gt;[redis]" style="shape=cylinder3;whiteSpace=wrap;html=1;boundedLbl=1;backgroundOutline=1;size=15;fillColor=#1ba1e2;fontColor=#ffffff;strokeColor=#006EAF;" parent="1" vertex="1">
          <mxGeometry x="430" y="1850" width="60" height="80" as="geometry" />
        </mxCell>
        <mxCell id="uPeLI1OYld5eHZ4vqKpb-28" style="edgeStyle=orthogonalEdgeStyle;rounded=0;orthogonalLoop=1;jettySize=auto;html=1;entryX=0;entryY=0.5;entryDx=0;entryDy=0;fillColor=#6a00ff;strokeColor=#3700CC;" parent="1" source="uPeLI1OYld5eHZ4vqKpb-1" target="uPeLI1OYld5eHZ4vqKpb-18" edge="1">
          <mxGeometry relative="1" as="geometry" />
        </mxCell>
        <mxCell id="uPeLI1OYld5eHZ4vqKpb-1" value="mongos_router2&lt;br&gt;&lt;span style=&quot;font-size: 8px;&quot;&gt;[MongoDB]&lt;/span&gt;" style="rounded=1;whiteSpace=wrap;html=1;fillColor=#6a00ff;fontColor=#ffffff;strokeColor=#3700CC;" parent="1" vertex="1">
          <mxGeometry x="640" y="2065" width="120" height="60" as="geometry" />
        </mxCell>
        <mxCell id="uPeLI1OYld5eHZ4vqKpb-7" style="edgeStyle=orthogonalEdgeStyle;rounded=0;orthogonalLoop=1;jettySize=auto;html=1;entryX=1;entryY=0.5;entryDx=0;entryDy=0;entryPerimeter=0;exitX=1;exitY=0.5;exitDx=0;exitDy=0;exitPerimeter=0;fillColor=#6a00ff;strokeColor=#3700CC;" parent="1" edge="1">
          <mxGeometry relative="1" as="geometry">
            <mxPoint x="890" y="2070" as="sourcePoint" />
          </mxGeometry>
        </mxCell>
        <mxCell id="uPeLI1OYld5eHZ4vqKpb-8" style="edgeStyle=orthogonalEdgeStyle;rounded=0;orthogonalLoop=1;jettySize=auto;html=1;entryX=1;entryY=0.5;entryDx=0;entryDy=0;entryPerimeter=0;exitX=1;exitY=0.5;exitDx=0;exitDy=0;exitPerimeter=0;fillColor=#6a00ff;strokeColor=#3700CC;" parent="1" edge="1">
          <mxGeometry relative="1" as="geometry">
            <mxPoint x="890" y="2070" as="sourcePoint" />
          </mxGeometry>
        </mxCell>
        <mxCell id="uPeLI1OYld5eHZ4vqKpb-9" style="edgeStyle=orthogonalEdgeStyle;rounded=0;orthogonalLoop=1;jettySize=auto;html=1;entryX=1;entryY=0.5;entryDx=0;entryDy=0;entryPerimeter=0;exitX=1;exitY=0.5;exitDx=0;exitDy=0;exitPerimeter=0;fillColor=#6a00ff;strokeColor=#3700CC;" parent="1" edge="1">
          <mxGeometry relative="1" as="geometry">
            <mxPoint x="890" y="1830" as="targetPoint" />
          </mxGeometry>
        </mxCell>
        <mxCell id="uPeLI1OYld5eHZ4vqKpb-10" style="edgeStyle=orthogonalEdgeStyle;rounded=0;orthogonalLoop=1;jettySize=auto;html=1;entryX=1;entryY=0.5;entryDx=0;entryDy=0;entryPerimeter=0;exitX=1;exitY=0.5;exitDx=0;exitDy=0;exitPerimeter=0;fillColor=#6a00ff;strokeColor=#3700CC;" parent="1" edge="1">
          <mxGeometry relative="1" as="geometry">
            <mxPoint x="890" y="1730" as="targetPoint" />
          </mxGeometry>
        </mxCell>
        <mxCell id="uPeLI1OYld5eHZ4vqKpb-11" value="&lt;span style=&quot;&quot;&gt;Shard-1&lt;/span&gt;" style="rounded=1;whiteSpace=wrap;html=1;fillColor=none;resizable=1;perimeterSpacing=0;glass=0;shadow=0;arcSize=12;absoluteArcSize=1;dashed=1;dashPattern=8 8;align=left;labelPosition=center;verticalLabelPosition=top;verticalAlign=bottom;fontColor=#ffffff;strokeColor=#314354;" parent="1" vertex="1">
          <mxGeometry x="800" y="1840" width="240" height="130" as="geometry" />
        </mxCell>
        <mxCell id="uPeLI1OYld5eHZ4vqKpb-12" value="&lt;div style=&quot;line-height: 80%;&quot;&gt;&lt;span style=&quot;font-size: 8px; line-height: 80%;&quot;&gt;Repl-1(&lt;/span&gt;&lt;span style=&quot;font-size: 8px; line-height: 80%;&quot;&gt;Master)&lt;br&gt;[MongoDB]&lt;/span&gt;&lt;/div&gt;" style="shape=cylinder3;whiteSpace=wrap;html=1;boundedLbl=1;backgroundOutline=1;size=15;fillColor=#6a00ff;fontColor=#ffffff;strokeColor=#3700CC;" parent="1" vertex="1">
          <mxGeometry x="810" y="1850" width="60" height="80" as="geometry" />
        </mxCell>
        <mxCell id="uPeLI1OYld5eHZ4vqKpb-13" value="&lt;div style=&quot;line-height: 80%;&quot;&gt;&lt;span style=&quot;font-size: 8px; line-height: 80%;&quot;&gt;Repl-2(&lt;/span&gt;&lt;span style=&quot;font-size: 8px; line-height: 80%;&quot;&gt;Slave)&lt;br&gt;[MongoDB]&lt;/span&gt;&lt;/div&gt;" style="shape=cylinder3;whiteSpace=wrap;html=1;boundedLbl=1;backgroundOutline=1;size=15;fillColor=#6a00ff;fontColor=#ffffff;strokeColor=#3700CC;" parent="1" vertex="1">
          <mxGeometry x="890" y="1850" width="60" height="80" as="geometry" />
        </mxCell>
        <mxCell id="uPeLI1OYld5eHZ4vqKpb-14" value="&lt;div style=&quot;line-height: 80%;&quot;&gt;&lt;font style=&quot;font-size: 8px;&quot;&gt;Repl-3(Slave)&lt;br&gt;[MongoDB]&lt;/font&gt;&lt;/div&gt;" style="shape=cylinder3;whiteSpace=wrap;html=1;boundedLbl=1;backgroundOutline=1;size=15;fillColor=#6a00ff;fontColor=#ffffff;strokeColor=#3700CC;" parent="1" vertex="1">
          <mxGeometry x="970" y="1850" width="60" height="80" as="geometry" />
        </mxCell>
        <mxCell id="uPeLI1OYld5eHZ4vqKpb-15" style="edgeStyle=orthogonalEdgeStyle;rounded=0;orthogonalLoop=1;jettySize=auto;html=1;entryX=0.5;entryY=1;entryDx=0;entryDy=0;entryPerimeter=0;exitX=0.5;exitY=1;exitDx=0;exitDy=0;exitPerimeter=0;" parent="1" source="uPeLI1OYld5eHZ4vqKpb-12" target="uPeLI1OYld5eHZ4vqKpb-13" edge="1">
          <mxGeometry relative="1" as="geometry" />
        </mxCell>
        <mxCell id="uPeLI1OYld5eHZ4vqKpb-16" style="edgeStyle=orthogonalEdgeStyle;rounded=0;orthogonalLoop=1;jettySize=auto;html=1;entryX=0.5;entryY=1;entryDx=0;entryDy=0;entryPerimeter=0;exitX=0.5;exitY=1;exitDx=0;exitDy=0;exitPerimeter=0;" parent="1" source="uPeLI1OYld5eHZ4vqKpb-12" target="uPeLI1OYld5eHZ4vqKpb-14" edge="1">
          <mxGeometry relative="1" as="geometry" />
        </mxCell>
        <mxCell id="uPeLI1OYld5eHZ4vqKpb-17" value="Репликация" style="edgeLabel;html=1;align=center;verticalAlign=middle;resizable=0;points=[];" parent="uPeLI1OYld5eHZ4vqKpb-16" vertex="1" connectable="0">
          <mxGeometry x="0.0618" relative="1" as="geometry">
            <mxPoint x="-6" y="10" as="offset" />
          </mxGeometry>
        </mxCell>
        <mxCell id="uPeLI1OYld5eHZ4vqKpb-18" value="&lt;span style=&quot;&quot;&gt;Shard-2&lt;/span&gt;" style="rounded=1;whiteSpace=wrap;html=1;fillColor=none;resizable=1;perimeterSpacing=0;glass=0;shadow=0;arcSize=12;absoluteArcSize=1;dashed=1;dashPattern=8 8;align=left;labelPosition=center;verticalLabelPosition=top;verticalAlign=bottom;fontColor=#ffffff;strokeColor=#314354;" parent="1" vertex="1">
          <mxGeometry x="800" y="2030" width="240" height="130" as="geometry" />
        </mxCell>
        <mxCell id="uPeLI1OYld5eHZ4vqKpb-19" value="&lt;div style=&quot;line-height: 80%;&quot;&gt;&lt;span style=&quot;font-size: 8px; line-height: 80%;&quot;&gt;Repl-1(&lt;/span&gt;&lt;span style=&quot;font-size: 8px; line-height: 80%;&quot;&gt;Master)&lt;br&gt;[MongoDB]&lt;/span&gt;&lt;/div&gt;" style="shape=cylinder3;whiteSpace=wrap;html=1;boundedLbl=1;backgroundOutline=1;size=15;fillColor=#6a00ff;fontColor=#ffffff;strokeColor=#3700CC;" parent="1" vertex="1">
          <mxGeometry x="810" y="2040" width="60" height="80" as="geometry" />
        </mxCell>
        <mxCell id="uPeLI1OYld5eHZ4vqKpb-20" value="&lt;div style=&quot;line-height: 80%;&quot;&gt;&lt;span style=&quot;font-size: 8px; line-height: 80%;&quot;&gt;Repl-2(&lt;/span&gt;&lt;span style=&quot;font-size: 8px; line-height: 80%;&quot;&gt;Slave)&lt;/span&gt;&lt;/div&gt;&lt;div style=&quot;line-height: 80%;&quot;&gt;&lt;span style=&quot;font-size: 8px;&quot;&gt;[MongoDB]&lt;/span&gt;&lt;/div&gt;" style="shape=cylinder3;whiteSpace=wrap;html=1;boundedLbl=1;backgroundOutline=1;size=15;fillColor=#6a00ff;fontColor=#ffffff;strokeColor=#3700CC;" parent="1" vertex="1">
          <mxGeometry x="890" y="2040" width="60" height="80" as="geometry" />
        </mxCell>
        <mxCell id="uPeLI1OYld5eHZ4vqKpb-21" value="&lt;div style=&quot;line-height: 80%;&quot;&gt;&lt;font style=&quot;font-size: 8px;&quot;&gt;Repl-3(Slave)&lt;/font&gt;&lt;/div&gt;&lt;div style=&quot;line-height: 80%;&quot;&gt;&lt;span style=&quot;font-size: 8px;&quot;&gt;[MongoDB]&lt;/span&gt;&lt;/div&gt;" style="shape=cylinder3;whiteSpace=wrap;html=1;boundedLbl=1;backgroundOutline=1;size=15;fillColor=#6a00ff;fontColor=#ffffff;strokeColor=#3700CC;" parent="1" vertex="1">
          <mxGeometry x="970" y="2040" width="60" height="80" as="geometry" />
        </mxCell>
        <mxCell id="uPeLI1OYld5eHZ4vqKpb-22" style="edgeStyle=orthogonalEdgeStyle;rounded=0;orthogonalLoop=1;jettySize=auto;html=1;entryX=0.5;entryY=1;entryDx=0;entryDy=0;entryPerimeter=0;exitX=0.5;exitY=1;exitDx=0;exitDy=0;exitPerimeter=0;" parent="1" source="uPeLI1OYld5eHZ4vqKpb-19" target="uPeLI1OYld5eHZ4vqKpb-21" edge="1">
          <mxGeometry relative="1" as="geometry" />
        </mxCell>
        <mxCell id="uPeLI1OYld5eHZ4vqKpb-23" value="Репликация" style="edgeLabel;html=1;align=center;verticalAlign=middle;resizable=0;points=[];" parent="uPeLI1OYld5eHZ4vqKpb-22" vertex="1" connectable="0">
          <mxGeometry x="0.0618" relative="1" as="geometry">
            <mxPoint x="-6" y="10" as="offset" />
          </mxGeometry>
        </mxCell>
        <mxCell id="uPeLI1OYld5eHZ4vqKpb-25" style="edgeStyle=orthogonalEdgeStyle;rounded=0;orthogonalLoop=1;jettySize=auto;html=1;entryX=0.5;entryY=1;entryDx=0;entryDy=0;entryPerimeter=0;exitX=0.5;exitY=1;exitDx=0;exitDy=0;exitPerimeter=0;" parent="1" source="uPeLI1OYld5eHZ4vqKpb-19" target="uPeLI1OYld5eHZ4vqKpb-20" edge="1">
          <mxGeometry relative="1" as="geometry" />
        </mxCell>
        <mxCell id="uPeLI1OYld5eHZ4vqKpb-27" style="edgeStyle=orthogonalEdgeStyle;rounded=0;orthogonalLoop=1;jettySize=auto;html=1;entryX=0;entryY=0.5;entryDx=0;entryDy=0;fillColor=#6a00ff;strokeColor=#3700CC;" parent="1" source="uPeLI1OYld5eHZ4vqKpb-26" target="uPeLI1OYld5eHZ4vqKpb-11" edge="1">
          <mxGeometry relative="1" as="geometry" />
        </mxCell>
        <mxCell id="uPeLI1OYld5eHZ4vqKpb-26" value="&lt;div&gt;&lt;font&gt;mongos_router1&lt;br&gt;&lt;span style=&quot;font-size: 8px;&quot;&gt;[MongoDB]&lt;/span&gt;&lt;/font&gt;&lt;/div&gt;" style="rounded=1;whiteSpace=wrap;html=1;fillColor=#6a00ff;fontColor=#ffffff;strokeColor=#3700CC;" parent="1" vertex="1">
          <mxGeometry x="640" y="1875" width="120" height="60" as="geometry" />
        </mxCell>
        <mxCell id="uPeLI1OYld5eHZ4vqKpb-30" style="edgeStyle=orthogonalEdgeStyle;rounded=0;orthogonalLoop=1;jettySize=auto;html=1;fillColor=#d80073;strokeColor=#A50040;" parent="1" source="uPeLI1OYld5eHZ4vqKpb-29" target="uPeLI1OYld5eHZ4vqKpb-26" edge="1">
          <mxGeometry relative="1" as="geometry" />
        </mxCell>
        <mxCell id="uPeLI1OYld5eHZ4vqKpb-37" value="Конфигурирование" style="edgeLabel;html=1;align=center;verticalAlign=middle;resizable=0;points=[];" parent="uPeLI1OYld5eHZ4vqKpb-30" vertex="1" connectable="0">
          <mxGeometry x="0.3703" y="1" relative="1" as="geometry">
            <mxPoint x="1" y="4" as="offset" />
          </mxGeometry>
        </mxCell>
        <mxCell id="uPeLI1OYld5eHZ4vqKpb-31" style="edgeStyle=orthogonalEdgeStyle;rounded=0;orthogonalLoop=1;jettySize=auto;html=1;entryX=0.5;entryY=0;entryDx=0;entryDy=0;fillColor=#d80073;strokeColor=#A50040;" parent="1" source="uPeLI1OYld5eHZ4vqKpb-29" target="uPeLI1OYld5eHZ4vqKpb-1" edge="1">
          <mxGeometry relative="1" as="geometry" />
        </mxCell>
        <mxCell id="uPeLI1OYld5eHZ4vqKpb-38" value="Конфигурирование" style="edgeLabel;html=1;align=center;verticalAlign=middle;resizable=0;points=[];" parent="uPeLI1OYld5eHZ4vqKpb-31" vertex="1" connectable="0">
          <mxGeometry x="0.19" y="-2" relative="1" as="geometry">
            <mxPoint y="-2" as="offset" />
          </mxGeometry>
        </mxCell>
        <mxCell id="uPeLI1OYld5eHZ4vqKpb-34" style="edgeStyle=orthogonalEdgeStyle;rounded=0;orthogonalLoop=1;jettySize=auto;html=1;entryX=0.5;entryY=1;entryDx=0;entryDy=0;fillColor=#d80073;strokeColor=#A50040;" parent="1" source="uPeLI1OYld5eHZ4vqKpb-29" target="uPeLI1OYld5eHZ4vqKpb-11" edge="1">
          <mxGeometry relative="1" as="geometry" />
        </mxCell>
        <mxCell id="uPeLI1OYld5eHZ4vqKpb-35" style="edgeStyle=orthogonalEdgeStyle;rounded=0;orthogonalLoop=1;jettySize=auto;html=1;entryX=0.5;entryY=0;entryDx=0;entryDy=0;fillColor=#d80073;strokeColor=#A50040;" parent="1" source="uPeLI1OYld5eHZ4vqKpb-29" target="uPeLI1OYld5eHZ4vqKpb-18" edge="1">
          <mxGeometry relative="1" as="geometry" />
        </mxCell>
        <mxCell id="uPeLI1OYld5eHZ4vqKpb-36" value="Конфигурирование" style="edgeLabel;html=1;align=center;verticalAlign=middle;resizable=0;points=[];" parent="uPeLI1OYld5eHZ4vqKpb-35" vertex="1" connectable="0">
          <mxGeometry x="0.018" relative="1" as="geometry">
            <mxPoint x="-17" y="-10" as="offset" />
          </mxGeometry>
        </mxCell>
        <mxCell id="uPeLI1OYld5eHZ4vqKpb-29" value="configSrv&lt;br&gt;&lt;span style=&quot;font-size: 8px;&quot;&gt;[MongoDB]&lt;/span&gt;" style="rounded=1;whiteSpace=wrap;html=1;fillColor=#6a00ff;fontColor=#ffffff;strokeColor=#3700CC;" parent="1" vertex="1">
          <mxGeometry x="640" y="1970" width="120" height="60" as="geometry" />
        </mxCell>
        <mxCell id="lFzufHl21QCXSFCjwF_H-6" style="edgeStyle=orthogonalEdgeStyle;rounded=0;orthogonalLoop=1;jettySize=auto;html=1;fillColor=#0050ef;strokeColor=#001DBC;" parent="1" source="lFzufHl21QCXSFCjwF_H-2" target="yOSXJpTAKkjODtj7mfZw-35" edge="1">
          <mxGeometry relative="1" as="geometry" />
        </mxCell>
        <mxCell id="lFzufHl21QCXSFCjwF_H-15" value="Распределяет запросы &lt;br&gt;между инстансами" style="edgeLabel;html=1;align=center;verticalAlign=middle;resizable=0;points=[];" parent="lFzufHl21QCXSFCjwF_H-6" vertex="1" connectable="0">
          <mxGeometry x="-0.1784" y="1" relative="1" as="geometry">
            <mxPoint x="16" y="-15" as="offset" />
          </mxGeometry>
        </mxCell>
        <mxCell id="lFzufHl21QCXSFCjwF_H-2" value="api-gateway&lt;br&gt;[APISIX Gateway]" style="rounded=1;whiteSpace=wrap;html=1;fillColor=#0050ef;fontColor=#ffffff;strokeColor=#001DBC;" parent="1" vertex="1">
          <mxGeometry x="-10" y="1970" width="120" height="60" as="geometry" />
        </mxCell>
        <mxCell id="lFzufHl21QCXSFCjwF_H-5" style="edgeStyle=orthogonalEdgeStyle;rounded=0;orthogonalLoop=1;jettySize=auto;html=1;entryX=0.5;entryY=1;entryDx=0;entryDy=0;fillColor=#647687;strokeColor=#314354;startArrow=classic;startFill=0;endArrow=none;" parent="1" source="lFzufHl21QCXSFCjwF_H-3" target="lFzufHl21QCXSFCjwF_H-2" edge="1">
          <mxGeometry relative="1" as="geometry" />
        </mxCell>
        <mxCell id="lFzufHl21QCXSFCjwF_H-8" value="Получение ip-адресов" style="edgeLabel;html=1;align=center;verticalAlign=middle;resizable=0;points=[];" parent="lFzufHl21QCXSFCjwF_H-5" vertex="1" connectable="0">
          <mxGeometry x="0.5106" y="1" relative="1" as="geometry">
            <mxPoint as="offset" />
          </mxGeometry>
        </mxCell>
        <mxCell id="lFzufHl21QCXSFCjwF_H-3" value="service-registry&lt;br&gt;[Consul]" style="rounded=1;whiteSpace=wrap;html=1;fillColor=#647687;fontColor=#ffffff;strokeColor=#314354;" parent="1" vertex="1">
          <mxGeometry x="120" y="2120" width="120" height="60" as="geometry" />
        </mxCell>
        <mxCell id="lFzufHl21QCXSFCjwF_H-10" style="edgeStyle=orthogonalEdgeStyle;rounded=0;orthogonalLoop=1;jettySize=auto;html=1;entryX=0;entryY=0.5;entryDx=0;entryDy=0;" parent="1" target="lFzufHl21QCXSFCjwF_H-2" edge="1">
          <mxGeometry relative="1" as="geometry">
            <mxPoint x="-180" y="2000" as="sourcePoint" />
          </mxGeometry>
        </mxCell>
        <mxCell id="lFzufHl21QCXSFCjwF_H-11" value="Отправляет запрос" style="edgeLabel;html=1;align=center;verticalAlign=middle;resizable=0;points=[];" parent="lFzufHl21QCXSFCjwF_H-10" vertex="1" connectable="0">
          <mxGeometry x="0.1906" y="3" relative="1" as="geometry">
            <mxPoint x="-11" y="-7" as="offset" />
          </mxGeometry>
        </mxCell>
        <mxCell id="lFzufHl21QCXSFCjwF_H-17" style="edgeStyle=orthogonalEdgeStyle;rounded=0;orthogonalLoop=1;jettySize=auto;html=1;entryX=0;entryY=0.5;entryDx=0;entryDy=0;" parent="1" source="lFzufHl21QCXSFCjwF_H-9" target="lFzufHl21QCXSFCjwF_H-12" edge="1">
          <mxGeometry relative="1" as="geometry">
            <Array as="points">
              <mxPoint x="-160" y="2000" />
              <mxPoint x="-160" y="1850" />
            </Array>
          </mxGeometry>
        </mxCell>
        <mxCell id="lFzufHl21QCXSFCjwF_H-18" value="Получает данные" style="edgeLabel;html=1;align=center;verticalAlign=middle;resizable=0;points=[];" parent="lFzufHl21QCXSFCjwF_H-17" vertex="1" connectable="0">
          <mxGeometry x="0.4658" y="3" relative="1" as="geometry">
            <mxPoint x="7" y="-7" as="offset" />
          </mxGeometry>
        </mxCell>
        <mxCell id="lFzufHl21QCXSFCjwF_H-9" value="Client" style="shape=umlActor;verticalLabelPosition=bottom;verticalAlign=top;html=1;outlineConnect=0;" parent="1" vertex="1">
          <mxGeometry x="-210" y="1970" width="30" height="60" as="geometry" />
        </mxCell>
        <mxCell id="lFzufHl21QCXSFCjwF_H-12" value="CDN" style="rounded=1;whiteSpace=wrap;html=1;fillColor=#e3c800;fontColor=#000000;strokeColor=#B09500;" parent="1" vertex="1">
          <mxGeometry x="-10" y="1820" width="120" height="60" as="geometry" />
        </mxCell>
      </root>
    </mxGraphModel>
  </diagram>
</mxfile>
